<?xml version="1.0" encoding="iso-8859-1"?>
<!-- Generator: Adobe Illustrator 18.1.1, SVG Export Plug-In . SVG Version: 6.00 Build 0)  -->
<svg version="1.1" id="Capa_1" xmlns="http://www.w3.org/2000/svg" xmlns:xlink="http://www.w3.org/1999/xlink" x="0px" y="0px"
	 viewBox="0 0 47.445 47.445" style="enable-background:new 0 0 47.445 47.445;" xml:space="preserve">
<g>
	<path style="fill:#010002;" d="M45.798,15.906c-1.184-0.834-2.754-1.074-4.156-1.225c-2.99-0.318-6.06,0.02-9.021,0.462
		c-0.128,0.019-0.254,0.044-0.382,0.064c-0.236-1.568-0.567-3.126-0.975-4.655c-0.429-1.604-0.97-3.18-1.673-4.686
		c-0.629-1.349-1.454-2.696-2.599-3.669c-0.934-0.795-2.053-1.293-3.291-1.306c-0.007,0-0.012,0.004-0.019,0.004
		c-3.162,0.053-4.839,3.567-5.838,6.083c-1.013,2.555-1.658,5.27-2.126,7.974c-1.523-0.297-3.062-0.531-4.603-0.691
		C8.24,13.962,4.93,13.74,2.241,15.003c-1.218,0.572-2.048,1.64-2.21,2.979c-0.193,1.606,0.535,3.274,1.466,4.54
		c2.029,2.766,5.179,4.629,8.229,6.074c0.529,0.251,1.067,0.488,1.609,0.715c-0.761,1.532-1.46,3.098-2.085,4.687
		c-0.61,1.555-1.149,3.145-1.522,4.774c-0.341,1.496-0.552,3.059-0.274,4.582c0.251,1.373,1.141,2.446,2.465,2.893
		c1.459,0.492,3.089,0,4.441-0.58c3.067-1.316,5.747-3.603,8.175-5.85c0.402-0.372,0.787-0.762,1.177-1.147
		c1.271,1.232,2.6,2.411,3.979,3.512c1.351,1.079,2.75,2.109,4.257,2.96c1.272,0.719,2.696,1.364,4.181,1.411
		c1.406,0.045,2.629-0.756,3.248-2.005c0.721-1.455,0.633-3.13,0.394-4.689c-0.493-3.211-1.889-6.32-3.338-9.202
		c-0.117-0.234-0.246-0.462-0.367-0.694c1.698-0.842,3.344-1.811,4.91-2.867c1.484-1,2.93-2.107,4.158-3.414
		c1.115-1.188,2.066-2.593,2.278-4.237C47.599,17.992,46.974,16.735,45.798,15.906z M3.428,16.65
		C3.447,16.642,3.449,16.641,3.428,16.65L3.428,16.65z M45.423,19.323c-0.023,0.131-0.052,0.262-0.087,0.39
		c-0.037,0.138-0.087,0.273-0.138,0.406c-0.017,0.041-0.041,0.101-0.047,0.115c-0.048,0.103-0.1,0.203-0.153,0.303
		c-0.166,0.315-0.364,0.613-0.573,0.902c-0.006,0.007-0.086,0.112-0.104,0.136c-0.048,0.06-0.098,0.12-0.147,0.181
		c-0.145,0.175-0.298,0.344-0.452,0.512c-0.585,0.631-1.232,1.204-1.9,1.746c-2.065,1.677-4.692,3.209-7.202,4.442
		c-0.14,0.068-0.279,0.137-0.421,0.202c-0.498,0.23-0.608,0.929-0.358,1.368c0.33,0.578,0.634,1.172,0.932,1.768
		c0.313,0.625,0.613,1.258,0.9,1.896c0.351,0.778,0.566,1.298,0.89,2.149c0.31,0.815,0.586,1.643,0.822,2.481
		c0.11,0.395,0.208,0.793,0.296,1.193c0.042,0.194,0.08,0.391,0.115,0.587c0.018,0.096,0.033,0.192,0.049,0.289
		c0.009,0.054,0.016,0.11,0.024,0.165c0.002,0.016,0.002,0.017,0.006,0.045c0.045,0.365,0.069,0.731,0.075,1.099
		c0.003,0.174-0.002,0.348-0.011,0.521c-0.004,0.084-0.011,0.168-0.019,0.252c-0.005,0.059-0.006,0.08-0.007,0.098
		c-0.001,0.003-0.003,0.008-0.009,0.043c-0.048,0.305-0.128,0.602-0.235,0.892c-0.005,0.01-0.009,0.018-0.017,0.035
		c-0.031,0.066-0.066,0.13-0.102,0.193c-0.034,0.062-0.073,0.123-0.112,0.184c-0.025,0.039-0.03,0.048-0.039,0.063
		c-0.005,0.004-0.004,0.001-0.019,0.02c-0.092,0.111-0.195,0.211-0.303,0.307c-0.002,0.002,0,0.001-0.002,0.002
		c-0.047,0.032-0.096,0.061-0.145,0.091c-0.029,0.016-0.058,0.029-0.087,0.044c-0.019,0.008-0.039,0.016-0.053,0.021
		c-0.056,0.019-0.252,0.059-0.312,0.075c-0.224,0.02-0.45,0.015-0.674-0.007c-0.009-0.002-0.014-0.003-0.027-0.005
		c-0.072-0.013-0.144-0.027-0.216-0.042c-0.175-0.036-0.348-0.084-0.519-0.135c-0.155-0.047-0.309-0.1-0.46-0.155
		c-0.079-0.029-0.157-0.06-0.235-0.091c-0.033-0.013-0.055-0.021-0.068-0.026c-0.005-0.002-0.005-0.002-0.011-0.005
		c-0.361-0.156-0.713-0.334-1.06-0.521c-0.724-0.389-1.418-0.832-2.096-1.296c-1.371-0.939-2.483-1.842-3.776-2.964
		c-0.865-0.751-1.71-1.527-2.532-2.326c-0.133-0.129-0.265-0.258-0.395-0.39c-0.376-0.381-1.04-0.394-1.414,0
		c-1.515,1.59-3.175,3.063-4.899,4.419c-1.178,0.926-2.735,1.991-4.224,2.709c-0.533,0.258-1.201,0.515-1.955,0.668
		c-0.048,0.01-0.097,0.017-0.145,0.026c-0.035,0.005-0.116,0.016-0.141,0.018c-0.151,0.016-0.304,0.019-0.456,0.019
		c-0.05,0-0.243-0.018-0.314-0.022c-0.138-0.024-0.275-0.054-0.41-0.095c-0.02-0.007-0.065-0.023-0.099-0.036
		c-0.037-0.018-0.074-0.035-0.11-0.054c-0.045-0.023-0.179-0.114-0.227-0.143c-0.071-0.062-0.141-0.124-0.204-0.194
		c-0.005-0.006-0.014-0.017-0.022-0.026c-0.038-0.054-0.075-0.11-0.109-0.167c-0.024-0.039-0.091-0.183-0.12-0.24
		c-0.036-0.098-0.071-0.197-0.099-0.298c-0.038-0.135-0.066-0.271-0.091-0.409c-0.003-0.016-0.008-0.049-0.012-0.08
		C9.35,42.59,9.342,42.51,9.336,42.429c-0.024-0.321-0.02-0.644-0.004-0.964c0.008-0.172,0.023-0.343,0.039-0.513
		C9.38,40.864,9.39,40.776,9.4,40.688c0.004-0.032,0.004-0.034,0.006-0.049c0.007-0.044,0.013-0.088,0.02-0.133
		c0.12-0.795,0.308-1.578,0.521-2.352c0.442-1.603,1.026-3.165,1.665-4.699c0.007-0.016,0.127-0.301,0.043-0.103
		c0.035-0.084,0.071-0.168,0.107-0.251c0.07-0.163,0.141-0.325,0.212-0.487c0.143-0.325,0.29-0.649,0.438-0.973
		c0.228-0.493,0.462-0.984,0.702-1.472c0.146-0.296,0.294-0.591,0.448-0.883c0.319-0.603,0.023-1.245-0.598-1.469
		c-0.17-0.062-0.338-0.129-0.506-0.195c-0.085-0.034-0.17-0.068-0.255-0.104c-0.029-0.012-0.104-0.043-0.162-0.067
		c-0.249-0.106-0.497-0.215-0.745-0.326c-1.4-0.632-2.763-1.351-4.062-2.17c-1.462-0.923-2.724-1.887-3.862-3.258
		c-0.152-0.183-0.383-0.505-0.587-0.834c-0.101-0.163-0.191-0.33-0.279-0.5c-0.043-0.083-0.083-0.169-0.123-0.254
		c-0.012-0.027-0.013-0.029-0.019-0.043c-0.02-0.05-0.039-0.099-0.057-0.15c-0.124-0.325-0.208-0.664-0.266-1.006
		c-0.004-0.039-0.018-0.146-0.02-0.162c-0.009-0.093-0.012-0.185-0.015-0.278c-0.002-0.066,0.018-0.32,0.017-0.378
		c0.018-0.093,0.038-0.186,0.065-0.276c0.008-0.026,0.018-0.05,0.027-0.075c0.011-0.026,0.023-0.054,0.033-0.073
		c0.039-0.078,0.089-0.148,0.137-0.22c0.025-0.021,0.163-0.191,0.21-0.237c0.044-0.043,0.09-0.083,0.137-0.122
		c0.003-0.002,0-0.001,0.003-0.003c0.102-0.074,0.209-0.139,0.317-0.203c0.116-0.068,0.237-0.128,0.359-0.184
		c0.009-0.004,0.027-0.012,0.044-0.019c0.081-0.032,0.163-0.063,0.246-0.092c0.288-0.102,0.584-0.18,0.882-0.247
		c0.157-0.035,0.316-0.065,0.476-0.094c0.082-0.015,0.164-0.027,0.245-0.04c0.066-0.01,0.095-0.015,0.111-0.018
		c-0.016,0.003-0.027,0.005,0.043-0.003c0.741-0.091,1.49-0.12,2.237-0.123c1.527-0.005,3.056,0.126,4.57,0.315
		c0.082,0.011,0.164,0.021,0.246,0.031c0.013,0.002,0.035,0.005,0.072,0.01c0.16,0.021,0.32,0.045,0.48,0.068
		c0.32,0.047,0.641,0.097,0.961,0.149c0.488,0.08,0.976,0.168,1.461,0.262c0.295,0.057,0.589,0.115,0.882,0.181
		c0.478,0.107,1.151-0.14,1.23-0.698c0.276-1.958,0.718-3.906,1.253-5.809c0.442-1.573,0.966-3.086,1.617-4.406
		c0.32-0.648,0.688-1.275,1.12-1.858c0.026-0.034,0.058-0.075,0.067-0.086c0.051-0.062,0.104-0.122,0.155-0.183
		c0.101-0.116,0.209-0.228,0.319-0.337c0.106-0.105,0.217-0.203,0.331-0.299c0.008-0.007,0.003-0.003,0.009-0.008
		c0.008-0.006,0.003-0.001,0.016-0.011c0.075-0.055,0.154-0.106,0.233-0.156c0.097-0.061,0.197-0.114,0.299-0.166
		c0.012-0.006,0.032-0.015,0.053-0.024c0.048-0.018,0.095-0.036,0.144-0.051c0.092-0.031,0.188-0.049,0.283-0.069
		c0.028,0.002,0.245-0.026,0.306-0.026c0.055,0.001,0.291,0.02,0.338,0.019c0.119,0.02,0.237,0.043,0.353,0.073
		c0.12,0.031,0.236,0.075,0.351,0.119c-0.008,0.005,0.29,0.144,0.355,0.182c0.131,0.074,0.256,0.159,0.379,0.246
		c0.02,0.014,0.015,0.01,0.026,0.017c0.009,0.007,0.003,0.003,0.016,0.014c0.06,0.049,0.119,0.101,0.178,0.151
		c0.266,0.232,0.505,0.492,0.73,0.761c0.013,0.015,0.088,0.11,0.1,0.123c0.036,0.049,0.073,0.097,0.108,0.146
		c0.104,0.143,0.201,0.288,0.298,0.435c0.216,0.331,0.411,0.675,0.596,1.023c0.178,0.334,0.34,0.677,0.495,1.023
		c0.128,0.285,0.25,0.587,0.411,1.016c0.934,2.484,1.521,5.113,1.91,7.735c0.012,0.081,0.024,0.163,0.035,0.244
		c0.006,0.045,0.012,0.091,0.017,0.137c0.079,0.675,0.575,1.098,1.266,0.964c0.6-0.115,1.204-0.208,1.809-0.295
		c0.12-0.018,0.24-0.034,0.361-0.051c0.082-0.011,0.265-0.035,0.31-0.04c0.355-0.045,0.71-0.086,1.066-0.124
		c0.764-0.081,1.53-0.143,2.298-0.185c0.81-0.045,1.62-0.062,2.431-0.045c0.383,0.008,0.765,0.026,1.146,0.053
		c0.187,0.014,0.372,0.03,0.558,0.049c0.091,0.01,0.182,0.021,0.273,0.031c0.057,0.007,0.084,0.011,0.087,0.011
		c0.031,0.005,0.062,0.009,0.094,0.013c0.679,0.102,1.352,0.258,1.992,0.507c0.001,0,0.001,0,0.002,0.001
		c0.01,0.005,0.015,0.007,0.031,0.014c0.066,0.029,0.131,0.061,0.194,0.094c0.125,0.062,0.244,0.133,0.361,0.206
		c0.056,0.035,0.108,0.071,0.161,0.109c0.006,0.005,0.001,0.001,0.009,0.008c0.113,0.094,0.216,0.199,0.313,0.309
		c0.034,0.047,0.063,0.097,0.094,0.145c0.029,0.049,0.055,0.101,0.08,0.151c0.044,0.118,0.073,0.241,0.098,0.365
		c0.001,0.004,0.001,0.004,0.002,0.008c0.001,0.01,0.001,0.015,0.002,0.029c0.01,0.101,0.011,0.202,0.012,0.304
		C45.448,19.042,45.425,19.267,45.423,19.323z M34.29,22.537c-1.985,1.442-3.97,2.884-5.955,4.326
		c0.768,2.362,1.535,4.724,2.302,7.086c0.155,0.475-0.451,0.99-0.881,0.678c-2.018-1.467-4.036-2.932-6.053-4.398
		c-2.018,1.466-4.035,2.931-6.053,4.398c-0.43,0.311-1.036-0.203-0.881-0.678c0.767-2.363,1.535-4.725,2.302-7.086
		c-1.985-1.442-3.97-2.884-5.955-4.326c-0.46-0.334-0.336-1.118,0.303-1.118c2.474,0,4.948,0,7.422,0
		c0.752-2.316,1.504-4.631,2.257-6.945c0.015-0.199,0.141-0.343,0.309-0.426c0.025-0.013,0.049-0.025,0.076-0.035
		c0.036-0.012,0.071-0.02,0.108-0.026c0.038-0.006,0.074-0.012,0.113-0.012c0.039,0,0.075,0.005,0.113,0.012
		c0.037,0.006,0.072,0.014,0.108,0.026c0.027,0.01,0.051,0.022,0.077,0.035c0.166,0.082,0.292,0.225,0.308,0.423
		c0.753,2.315,1.505,4.632,2.257,6.948c2.474,0,4.947,0,7.421,0C34.627,21.419,34.75,22.203,34.29,22.537z"/>
</g>
<g>
</g>
<g>
</g>
<g>
</g>
<g>
</g>
<g>
</g>
<g>
</g>
<g>
</g>
<g>
</g>
<g>
</g>
<g>
</g>
<g>
</g>
<g>
</g>
<g>
</g>
<g>
</g>
<g>
</g>
</svg>
